<?xml version="1.0" encoding="utf-8"?>
<!-- Generator: Adobe Illustrator 24.1.3, SVG Export Plug-In . SVG Version: 6.00 Build 0)  -->
<svg version="1.1" id="Layer_1" xmlns="http://www.w3.org/2000/svg" xmlns:xlink="http://www.w3.org/1999/xlink" x="0px" y="0px"
	 viewBox="0 0 3840 208.28" style="enable-background:new 0 0 3840 208.28;" xml:space="preserve">
<style type="text/css">
	.st0{fill:#D9F4FF;}
	.st1{fill:#C6C2AF;}
	.st2{fill:#4B823D;}
	.st3{fill:#3F6D32;}
	.st4{fill:#695020;}
	.st5{fill:#6FB259;}
	.st6{fill:#88C881;}
	.st7{fill:#6AA562;}
	.st8{fill:#6BA543;}
	.st9{fill:#83C451;}
	.st10{fill:#B4CB34;}
	.st11{fill:#AAB72C;}
	.st12{fill:#94C85B;}
	.st13{fill:#84AF4B;}
	.st14{fill:#666666;stroke:#666666;stroke-width:5;stroke-miterlimit:10;}
	.st15{fill:#4D4D4D;}
	.st16{fill:#39B54A;}
	.st17{fill:#666666;}
</style>
<g>
	<polyline class="st0" points="3840,81.28 3840,208.28 3840,195.28 1920,195.28 1920,118.28 1920,118.73 2154.4,21.54 
		2374.46,139.43 2553.62,93.67 2592.1,110.31 2901.85,0 3152.13,110.31 3246.12,70.13 3460.56,143.51 3682.55,30.91 	"/>
	<polyline class="st0" points="0,81.28 0,208.28 0,195.28 1920,195.28 1920,118.28 1920,118.73 1685.6,21.54 1465.54,139.43 
		1286.38,93.67 1247.9,110.31 938.15,0 687.87,110.31 593.88,70.13 379.44,143.51 157.45,30.91 	"/>
</g>
<g>
	<path class="st1" d="M1426.33,195.05c0,6.9-14.1,12.5-31.49,12.5c-17.39,0-31.49-5.6-31.49-12.5c0-6.9,14.1-12.5,31.49-12.5
		C1412.23,182.55,1426.33,188.14,1426.33,195.05z"/>
	<g>
		<g>
			<g>
				<ellipse class="st1" cx="1131.42" cy="193.8" rx="37.35" ry="14.83"/>
				<g>
					<g>
						<g>
							<path class="st2" d="M1132.16,112.8c0,0-20.31-5.46-28.9-33.95c-8.59-28.5-9.95-99.67,0-128.17
								c9.95-28.5,32.89-50.33,46.63-30.92c13.74,19.4,22.06,108.77,12.58,146.97C1153,104.92,1139.27,110.98,1132.16,112.8z"/>
						</g>
						<path class="st3" d="M1124.95-82.59c16.75,1.77,25.35,40.34,28.91,68.22c3.56,27.87,6.36,89.33-16.91,96.6
							c-23.06,7.2-34.76-8-34.98-8.29c0.41,1.74,0.84,3.39,1.3,4.9c8.59,28.5,28.9,33.95,28.9,33.95
							c7.11-1.82,20.84-7.88,30.32-46.08c9.47-38.2,1.16-127.56-12.58-146.97C1142.97-90.03,1133.71-89.33,1124.95-82.59z"/>
					</g>
					<g>
						<path class="st4" d="M1123.05,197.36c0,0,2.59-103.95,1.85-107.44c-0.74-3.5-10-19.47-10-19.47s11.85,14.47,12.96,8.49
							c1.11-5.99,3.33-51.4,3.33-51.4s0.74,45.91,3.7,45.41c2.96-0.5,15.18-18.47,15.18-18.47s-14.07,23.96-14.07,32.94
							s1.11,109.94,1.11,109.94H1123.05z"/>
					</g>
				</g>
			</g>
			<g>
				<path class="st1" d="M1060.53,196.01c0,6.9-25.81,12.5-57.66,12.5c-31.84,0-57.66-5.6-57.66-12.5c0-6.9,25.81-12.5,57.66-12.5
					C1034.71,183.51,1060.53,189.11,1060.53,196.01z"/>
				<g>
					<path class="st2" d="M957.3,196.01c0,0-13.66-3.73-8.28-16.56c5.38-12.84,16.98-4.14,16.98-4.14s-11.59-9.52-2.48-17.81
						c9.11-8.28,11.59,9.94,11.59,9.94s-4.55-21.95,15.32-25.67c19.88-3.73,25.67,24.84,25.67,24.84s2.07-21.53,11.18-22.36
						c9.11-0.83,0,19.46,0,19.46s11.13-17.39,27.51-4.97c16.38,12.42-3.5,37.27-3.5,37.27H957.3z"/>
					<g>
						<path class="st5" d="M955.53,183.51c2.19-5.86,14.79-4.19,14.79-4.19s-6.6-14-3.94-15.67c2.67-1.67,10.67,8.67,10.67,8.67
							s-1.08-14.33,6.63-20.33c7.71-6,22.04-0.54,30.04,16.73c0,0,0.92-1.32,2.21-2.82c-1.06-4.39-7.51-27.51-25.51-24.13
							c-17.46,3.27-16.07,20.6-15.47,24.77c-0.65-3.57-3.57-16.19-11.44-9.03c-9.11,8.28,2.48,17.81,2.48,17.81
							s-11.59-8.7-16.98,4.14c-5.38,12.84,8.28,16.56,8.28,16.56S953.34,189.37,955.53,183.51z"/>
						<path class="st5" d="M1054.79,158.75c-16.38-12.42-27.51,4.97-27.51,4.97s9.11-20.29,0-19.46
							c-7.91,0.72-10.51,17.02-11.06,21.32c2.07-2.36,4.93-4.96,6.5-3.58c2.67,2.33,1.67,9,1.67,9s11.33-12,20.33-7.33
							s6.57,32.35,6.57,32.35S1071.17,171.17,1054.79,158.75z"/>
					</g>
				</g>
			</g>
			<g>
				<path class="st1" d="M820.88,196.39c0,6.9-14.1,12.5-31.49,12.5c-17.39,0-31.49-5.6-31.49-12.5c0-6.9,14.1-12.5,31.49-12.5
					C806.78,183.89,820.88,189.49,820.88,196.39z"/>
				<g>
					<g>
						<path class="st6" d="M844.85,63.36c-4.87-17.33-20.94-25.4-35.53-25.45c-5.87-15.07-25.34-23.27-41.13-17.21
							c-18.31,7.03-23.28,27.48-18.63,41.86c0,0,0,0.01,0,0.01c-5.5,2.41-10.39,6.64-14.01,12.95
							c-8.24,14.36,2.39,33.51,18.36,37.03c14.59,3.22,26.58-6.48,31.11-17.44c6.67,7.31,16.17,12.1,28.26,12.47
							C835.05,108.25,850.67,84.07,844.85,63.36z"/>
						<path class="st7" d="M807.41,89.7c-13.63,1.3-21.52-5.8-21.52-5.8s-9.33,10.09-27.97,11.5c-17.26,1.3-24.16-9.65-25.09-11.29
							c-1.26,12.51,8.17,25.61,21.11,28.46c14.59,3.22,26.58-6.48,31.11-17.44c6.67,7.31,16.17,12.1,28.26,12.47
							c21.75,0.66,37.37-23.53,31.55-44.23c-4.87-17.33-20.94-25.4-35.53-25.45C835.61,56.91,821.04,88.39,807.41,89.7z"/>
					</g>
					<g>
						<path class="st4" d="M779.96,199.4c0,0,2.63-92.29,1.88-95.47c-0.75-3.19-10.15-17.73-10.15-17.73s12.03,13.18,13.16,7.73
							c1.13-5.45,3.38-46.83,3.38-46.83s0.75,41.83,3.76,41.38c3.01-0.46,15.41-16.83,15.41-16.83s-14.29,21.83-14.29,30.01
							c0,8.18,1.13,97.75,1.13,97.75H779.96z"/>
					</g>
				</g>
			</g>
			<g>
				<ellipse class="st1" cx="653.19" cy="193.66" rx="63.04" ry="12.5"/>
				<g>
					<path class="st8" d="M608.56,193.66c0,0-9.65-24.58-2.3-32.83c7.36-8.25,21.84-7.33,26.66,1.37c0,0,1.38-8.93,11.72-10.42
						c10.34-1.49,13.33,8.13,13.56,12.03c0,0,8.28-6.87,17.7-5.73c9.43,1.14,11.73,9.39,9.89,12.37c0,0,24.68,0.3,15.63,23.21
						H608.56z"/>
					<path class="st9" d="M613.15,166.98c8-5,18.67,2.33,18.67,2.33s3.98-9.21,12.82-8.77c8.84,0.44,12.84,9.1,12.84,9.1
						s10.63-6.33,18.65-1.33c8.02,5,7.02,10.33,7.02,10.33s19.54-1.63,18.27,15.02c9.05-22.91-15.63-23.21-15.63-23.21
						c1.84-2.98-0.46-11.22-9.89-12.37c-9.42-1.15-17.7,5.73-17.7,5.73c-0.23-3.89-3.22-13.52-13.56-12.03
						c-10.34,1.49-11.72,10.42-11.72,10.42c-4.83-8.7-19.31-9.62-26.66-1.37c-7.36,8.25,2.3,32.83,2.3,32.83
						S605.15,171.98,613.15,166.98z"/>
				</g>
			</g>
			<g>
				<ellipse class="st1" cx="379.35" cy="193.88" rx="31.49" ry="12.5"/>
				<g>
					<g>
						<g>
							<path class="st10" d="M371.42,132.86c0,0-11.25,8.08-18.72-2.79c0,0-12.45,3.11-15.26-8.38c0,0-14.94-1.24-14.32-12.74
								c0,0-18.05-8.7-6.22-25.16c0,0-11.52-10.25,1.55-21.74c0,0-9.96-14.91,7.47-19.26c0,0,1.56-17.71,18.99-13.67
								c0,0,4.67-14.91,21.48-9.32c0,0,15.1-11.2,23.66,3.73c0,0,16.5-2.17,19.61,11.49c0,0,15.88,2.18,14.32,18.01
								c0,0,12.19,11.18,4.4,24.54c0,0,7.76,22.24-9.08,24.23c0,0,0.54,9.85-9.43,14.2c0,0-1.78,11.89-12.36,10.03
								c0,0-8.1,9.01-14.01,4.04L371.42,132.86z"/>
						</g>
						<path class="st11" d="M423.99,53.04c1.56-15.84-14.32-18.01-14.32-18.01c7.9,34.15-11.4,77.85-41.4,81.74
							s-45.14-7.82-45.14-7.82c-0.62,11.49,14.32,12.74,14.32,12.74c2.8,11.49,15.26,8.38,15.26,8.38
							c7.47,10.87,18.72,2.79,18.72,2.79l12.1-2.79c5.91,4.97,14.01-4.04,14.01-4.04c10.58,1.87,12.36-10.03,12.36-10.03
							c9.96-4.35,9.43-14.2,9.43-14.2c16.84-1.98,9.08-24.23,9.08-24.23C436.18,64.22,423.99,53.04,423.99,53.04z"/>
					</g>
					<g>
						<path class="st4" d="M352.7,104.21c0,0,17.43,1.81,18.68,10.83c1.25,9.03-1.87,81.84-1.87,81.84h18.68
							c0,0-8.1-81.84-5.29-87.77c2.8-5.93,11.83-9.28,11.83-9.28s-10.28-0.26-13.7,2.84c-3.42,3.1-7.78,3.87-12.45,3.1
							C363.91,104.98,359.24,103.7,352.7,104.21z"/>
					</g>
				</g>
			</g>
			<g>
				<path class="st1" d="M544.66,193.88c0,6.9-14.1,12.5-31.49,12.5c-17.39,0-31.49-5.6-31.49-12.5c0-6.9,14.1-12.5,31.49-12.5
					C530.57,181.38,544.66,186.97,544.66,193.88z"/>
				<g>
					<g>
						<g>
							<path class="st12" d="M503.14,112.31c0,0-36.98-12.46-45.63-39.18c-8.65-26.72,0.58-64.73,34.61-77.79
								c34.04-13.06,77.31,9.5,79.61,46.32c2.31,36.82-20.84,61.73-51.09,70.66H503.14z"/>
						</g>
						<path class="st13" d="M571.73,41.65C570.67,24.73,560.96,10.83,547.47,2c0,0,0,0,0,0c17.2,27.12,2.8,77.88-32.4,86.88
							c-34.66,8.86-53.44-7.41-54.01-7.91c12.39,21.33,42.09,31.34,42.09,31.34h17.5C550.89,103.39,574.04,78.47,571.73,41.65z"/>
					</g>
					<g>
						<path class="st4" d="M506.12,196.88c0,0,2.63-92.29,1.88-95.47c-0.75-3.19-10.15-17.73-10.15-17.73S509.88,96.86,511,91.4
							c1.13-5.45,3.38-46.83,3.38-46.83s0.75,41.83,3.76,41.38c3.01-0.46,15.41-16.83,15.41-16.83s-14.29,21.83-14.29,30.01
							c0,8.18,1.13,97.75,1.13,97.75H506.12z"/>
					</g>
				</g>
			</g>
			<g>
				<g>
					<path class="st6" d="M1450.3,62.02c-4.87-17.33-20.94-25.4-35.53-25.45c-5.87-15.07-25.34-23.27-41.13-17.21
						c-18.31,7.03-23.28,27.48-18.63,41.86c0,0,0,0.01,0,0.01c-5.5,2.41-10.39,6.64-14.01,12.95c-8.24,14.36,2.39,33.51,18.36,37.03
						c14.59,3.22,26.58-6.48,31.11-17.44c6.67,7.31,16.17,12.1,28.26,12.47C1440.5,106.9,1456.11,82.72,1450.3,62.02z"/>
					<path class="st7" d="M1412.85,88.35c-13.63,1.3-21.52-5.8-21.52-5.8s-9.33,10.09-27.97,11.5c-17.26,1.3-24.16-9.65-25.09-11.29
						c-1.26,12.51,8.17,25.61,21.11,28.46c14.59,3.22,26.58-6.48,31.11-17.44c6.67,7.31,16.17,12.1,28.26,12.47
						c21.75,0.66,37.37-23.53,31.55-44.23c-4.87-17.33-20.94-25.4-35.53-25.45C1441.06,55.56,1426.48,87.05,1412.85,88.35z"/>
				</g>
				<g>
					<path class="st4" d="M1385.41,198.05c0,0,2.63-92.29,1.88-95.47c-0.75-3.19-10.15-17.73-10.15-17.73s12.03,13.18,13.16,7.73
						c1.13-5.45,3.38-46.83,3.38-46.83s0.75,41.83,3.76,41.38c3.01-0.46,15.41-16.83,15.41-16.83s-14.29,21.83-14.29,30.01
						c0,8.18,1.13,97.75,1.13,97.75H1385.41z"/>
				</g>
			</g>
			<rect x="1602.5" y="82.78" class="st14" width="34" height="70"/>
			<circle class="st15" cx="1619.24" cy="116.25" r="7.39"/>
			<circle class="st15" cx="1619.09" cy="138.12" r="7.39"/>
			<circle class="st16" cx="1619.09" cy="95.67" r="7.39"/>
			<path class="st1" d="M1651.49,197.28c0,6.9-14.1,12.5-31.49,12.5c-17.39,0-31.49-5.6-31.49-12.5c0-6.9,14.1-12.5,31.49-12.5
				C1637.39,184.78,1651.49,190.37,1651.49,197.28z"/>
		</g>
		<rect x="1616" y="150.28" class="st17" width="6" height="50"/>
	</g>
</g>
</svg>
